<svg width="215" height="44" viewBox="0 0 215 44" fill="none" xmlns="http://www.w3.org/2000/svg">
<g id="Group 16">
<g id="Group 13">
<g id="Group 11">
<path id="path2405" d="M36.9807 40.5549L22.8556 17.9367L32.2243 12.1174L49.7838 40.1031L36.9807 40.5549Z" fill="black"/>
<path id="path2407" d="M1.41322 38.5716L10.7805 32.7152L16.1489 41.2903L3.3829 41.7409L1.41322 38.5716Z" fill="black"/>
<path id="path2415" d="M12.2748 28.3718L21.6426 22.5278L33.022 40.6937L23.0146 41.0469L20.2927 41.1306L12.2748 28.3718Z" fill="black"/>
</g>
<g id="Group 12">
<g id="Group 9">
<g id="Group 7">
<path id="path2409" d="M123.263 38.366L129.617 38.1418L128.712 12.4833L122.357 12.7076L123.263 38.366Z" fill="black"/>
<path id="path2411" d="M202.92 36.1617C195.814 36.4125 191.41 32.902 190.997 27.7496L197.698 27.5131C197.755 29.1276 198.849 31.4559 203.185 31.3895C206.074 31.2876 207.371 29.5387 207.326 28.2702C207.082 26.2582 204.534 26.1749 201.803 25.8383C199.073 25.5017 196.745 25.0932 195.039 24.2874C192.863 23.2673 191.335 20.9542 191.24 18.2442C191.078 13.6603 194.936 9.88709 201.579 9.65262C208.02 9.42529 212.212 12.6546 212.823 17.6557L206.352 17.8841C206.247 16.5311 205.912 14.4069 202.099 14.5414C199.528 14.6322 197.842 15.2112 197.761 17.0038C197.853 19.6273 203.191 19.2657 207.389 20.2144C211.411 21.0828 214.04 23.4725 214.162 26.932C214.387 33.3034 209.303 35.9364 202.92 36.1617Z" fill="black"/>
<path id="path2417" fill-rule="evenodd" clip-rule="evenodd" d="M106.213 39.5747C98.8184 39.8357 92.5977 34.0223 92.3403 26.7284C92.0798 19.348 97.8823 13.3123 105.277 13.0514C108.079 12.9525 110.647 13.6123 112.925 15.0618L112.546 4.3083L118.9 4.08403L120.114 38.4779L113.759 38.7022L113.699 37.0013C111.526 38.5212 109.015 39.4759 106.213 39.5747ZM98.435 26.5133C98.5754 30.4918 102.101 33.6869 106.174 33.5432C110.16 33.4025 113.451 29.9668 113.311 25.9883C113.17 22.0098 109.642 18.7282 105.656 18.8688C101.583 19.0126 98.2946 22.5348 98.435 26.5133Z" fill="black"/>
<path id="path2419" fill-rule="evenodd" clip-rule="evenodd" d="M151.945 2.91804L158.213 2.69683L159.426 37.0907L153.158 37.3119L153.098 35.611C151.012 37.1279 148.414 38.0856 145.525 38.1875C138.217 38.4454 131.997 32.632 131.739 25.3381C131.479 17.9577 137.281 11.9221 144.589 11.6642C147.478 11.5622 150.046 12.2221 152.324 13.6715L151.945 2.91804ZM137.921 25.12C138.061 29.0985 141.586 32.2936 145.486 32.156C149.559 32.0122 152.85 28.5765 152.71 24.598C152.569 20.6195 149.041 17.3379 144.968 17.4816C141.069 17.6193 137.78 21.1415 137.921 25.12Z" fill="black"/>
<path id="path2421" fill-rule="evenodd" clip-rule="evenodd" d="M174.901 37.1508C167.622 37.4077 161.373 31.5953 161.115 24.3014C160.855 16.921 166.686 10.8844 173.965 10.6275C176.767 10.5286 179.422 11.1854 181.613 12.6379L181.541 10.591L187.896 10.3667L188.802 36.054L182.448 36.2783L182.388 34.5774C180.301 36.0943 177.79 37.0489 174.901 37.1508ZM167.297 24.0833C167.437 28.0618 170.962 31.2569 174.949 31.1162C178.935 30.9755 182.139 27.5429 181.999 23.5644C181.859 19.5859 178.417 16.3012 174.431 16.4419C170.445 16.5826 167.156 20.1048 167.297 24.0833Z" fill="black"/>
<path id="path2423" fill-rule="evenodd" clip-rule="evenodd" d="M68.9725 27.5529C69.1129 31.5314 72.6383 34.7265 76.6244 34.5858C80.6972 34.4421 83.9886 31.0064 83.8482 27.0279C83.7078 23.0494 80.1793 19.7678 76.1065 19.9115C72.1204 20.0522 68.8321 23.5744 68.9725 27.5529ZM76.6638 40.6174C69.3559 40.8753 63.1063 35.0629 62.8489 27.769C62.5884 20.3886 68.4198 14.3519 75.7277 14.094C78.5295 13.9951 81.1845 14.6519 83.4626 16.1014L83.3903 14.0545L89.6583 13.8333L90.5649 39.5206L84.2969 39.7418L84.2368 38.0409C82.1502 39.5578 79.5522 40.5155 76.6638 40.6174Z" fill="black"/>
</g>
</g>
<rect id="Rectangle 18" x="121.905" y="3.97736" width="6.41338" height="5.87893" transform="rotate(-2.02127 121.905 3.97736)" fill="black"/>
</g>
</g>
</g>
</svg>
