<svg width="217" height="58" viewBox="0 0 217 58" fill="none" xmlns="http://www.w3.org/2000/svg">
<g id="Group 21">
<g id="Group 13">
<g id="Group 11">
<path id="path2405" d="M36.3668 37.736L25.5217 13.3744L35.6081 8.91335L49.1084 39.0676L36.3668 37.736Z" fill="black"/>
<path id="path2407" d="M1.42038 30.8292L11.5106 26.3313L15.6353 35.5692L2.93056 34.2415L1.42038 30.8292Z" fill="black"/>
<path id="path2415" d="M13.5938 22.2387L23.6828 17.7531L32.4275 37.324L22.4681 36.2832L19.761 35.9879L13.5938 22.2387Z" fill="black"/>
</g>
<g id="Group 12">
<g id="Group 9">
<g id="Group 7">
<path id="path2409" d="M122.115 47.5586L128.44 48.2195L131.108 22.6842L124.784 22.0233L122.115 47.5586Z" fill="black"/>
<path id="path2411" d="M201.305 56.4453C194.234 55.7062 190.36 51.6178 190.667 46.458L197.336 47.155C197.168 48.7617 197.928 51.2195 202.231 51.7562C205.106 52.0567 206.634 50.505 206.766 49.2426C206.803 47.2162 204.292 46.7797 201.635 46.0669C198.977 45.3541 196.729 44.626 195.151 43.5911C193.138 42.2785 191.947 39.7756 192.228 37.0786C192.705 32.5166 197.05 29.3161 203.662 30.0071C210.072 30.677 213.774 34.4575 213.684 39.4949L207.245 38.8219C207.328 37.4674 207.291 35.3172 203.497 34.9207C200.938 34.6533 199.188 34.9925 198.859 36.7563C198.586 39.3672 203.922 39.7509 207.947 41.2737C211.81 42.6925 214.081 45.4244 213.722 48.8674C213.059 55.2082 207.658 57.1092 201.305 56.4453Z" fill="black"/>
<path id="path2417" fill-rule="evenodd" clip-rule="evenodd" d="M105.063 46.3872C97.7037 45.6181 92.3512 38.9967 93.1098 31.7378C93.8774 24.3928 100.462 19.222 107.821 19.9911C110.61 20.2825 113.062 21.2928 115.116 23.0448L116.234 12.3429L122.559 13.0038L118.981 47.2327L112.657 46.5718L112.834 44.879C110.471 46.0822 107.851 46.6786 105.063 46.3872ZM99.1753 32.3717C98.7615 36.3311 101.809 39.9851 105.862 40.4087C109.829 40.8233 113.566 37.8783 113.98 33.9189C114.393 29.9594 111.355 26.2193 107.388 25.8047C103.335 25.3812 99.5891 28.4122 99.1753 32.3717Z" fill="black"/>
<path id="path2419" fill-rule="evenodd" clip-rule="evenodd" d="M155.444 16.4402L161.682 17.0921L158.105 51.321L151.867 50.6691L152.044 48.9763C149.767 50.1886 147.061 50.776 144.186 50.4755C136.914 49.7155 131.561 43.094 132.32 35.8351C133.087 28.4901 139.672 23.3193 146.945 24.0794C149.82 24.3798 152.271 25.3902 154.326 27.1421L155.444 16.4402ZM138.471 36.478C138.058 40.4374 141.105 44.0915 144.986 44.497C149.039 44.9206 152.776 41.9756 153.189 38.0162C153.603 34.0568 150.565 30.3167 146.512 29.8931C142.631 29.4875 138.885 32.5186 138.471 36.478Z" fill="black"/>
<path id="path2421" fill-rule="evenodd" clip-rule="evenodd" d="M173.422 53.5313C166.178 52.7743 160.796 46.1498 161.555 38.8909C162.323 31.5459 168.936 26.3781 176.18 27.1352C178.969 27.4266 181.507 28.4459 183.475 30.1889L183.688 28.1518L190.012 28.8128L187.34 54.3768L181.016 53.7159L181.193 52.0231C178.916 53.2354 176.296 53.8317 173.422 53.5313ZM167.707 39.5338C167.293 43.4932 170.34 47.1472 174.307 47.5618C178.274 47.9764 181.925 45.0224 182.338 41.063C182.752 37.1035 179.8 33.3725 175.833 32.9579C171.866 32.5433 168.12 35.5744 167.707 39.5338Z" fill="black"/>
<path id="path2423" fill-rule="evenodd" clip-rule="evenodd" d="M69.8541 29.3069C69.4404 33.2663 72.4876 36.9203 76.4546 37.3349C80.5078 37.7585 84.2447 34.8135 84.6585 30.8541C85.0723 26.8947 82.034 23.1546 77.9808 22.731C74.0138 22.3164 70.2679 25.3475 69.8541 29.3069ZM75.6554 43.3134C68.3826 42.5534 63.0013 35.9289 63.7599 28.67C64.5275 21.325 71.1412 16.1572 78.414 16.9173C81.2024 17.2087 83.7404 18.2281 85.7949 19.98L86.0078 17.943L92.2457 18.5949L89.5741 44.1589L83.3361 43.507L83.5131 41.8142C81.2359 43.0265 78.53 43.6139 75.6554 43.3134Z" fill="black"/>
</g>
</g>
<rect id="Rectangle 18" x="125.549" y="13.3157" width="6.41337" height="5.87893" transform="rotate(5.96622 125.549 13.3157)" fill="black"/>
</g>
</g>
</g>
</svg>
