<svg width="58" height="40" viewBox="0 0 58 40" fill="none" xmlns="http://www.w3.org/2000/svg">
<g id="layer1">
<g id="g2402">
<g id="g3035">
<path id="path2405" d="M37.8542 25.7987L26.0281 5.28528L34.524 0.414698L49.2296 25.7987H37.8542Z" fill="#F5F5F5"/>
<path id="path2407" d="M6.35474 22.9252L14.8506 18.0217L19.3458 25.7992H8.00335L6.35474 22.9252Z" fill="#F5F5F5"/>
<path id="path2409" d="M23.0278 38.8862H25.4458V29.1231H23.0278V38.8862Z" fill="#F5F5F5"/>
<path id="path2411" d="M53.3292 39.1165C50.6255 39.1165 48.9989 37.7234 48.9109 35.7598H51.4608C51.4608 36.3741 51.8455 37.2736 53.4941 37.3065C54.5932 37.3065 55.1097 36.6593 55.1097 36.1766C55.0438 35.4087 54.0766 35.3429 53.0435 35.1784C52.0103 35.0138 51.1311 34.8273 50.4936 34.4982C49.6803 34.0814 49.1308 33.1819 49.1308 32.1507C49.1308 30.4065 50.6475 29.0243 53.1754 29.0243C55.6263 29.0243 57.176 30.3078 57.3408 32.2165H54.8789C54.8569 31.7009 54.758 30.8892 53.3072 30.8892C52.3291 30.8892 51.6806 31.0866 51.6257 31.7668C51.6257 32.765 53.6589 32.6992 55.2416 33.116C56.7583 33.5 57.7255 34.4434 57.7255 35.7598C57.7255 38.1841 55.7582 39.1165 53.3292 39.1165Z" fill="#F5F5F5"/>
<path id="path2415" d="M16.3125 14.2148L24.8083 9.32231L34.3373 25.7989H25.4458V28.2122H23.0278V25.7879L16.3125 14.2148Z" fill="#F5F5F5"/>
<path id="path2417" fill-rule="evenodd" clip-rule="evenodd" d="M16.5322 39.1167C13.7186 39.1167 11.4325 36.824 11.4325 34.0487C11.4325 31.2404 13.7186 29.0245 16.5322 29.0245C17.5983 29.0245 18.5655 29.3098 19.4118 29.8912V25.7994H21.8297V38.8864H19.4118V38.2391C18.5655 38.7876 17.5983 39.1167 16.5322 39.1167ZM13.7515 34.0487C13.7515 35.5625 15.0484 36.824 16.5981 36.824C18.1149 36.824 19.4118 35.5625 19.4118 34.0487C19.4118 32.5349 18.1149 31.2404 16.5981 31.2404C15.0484 31.2404 13.7515 32.5349 13.7515 34.0487Z" fill="#F5F5F5"/>
<path id="path2419" fill-rule="evenodd" clip-rule="evenodd" d="M34.4031 25.7994H36.7881V38.8864H34.4031V38.2391C33.5898 38.7876 32.5896 39.1167 31.4906 39.1167C28.7099 39.1167 26.4238 36.824 26.4238 34.0487C26.4238 31.2404 28.7099 29.0245 31.4906 29.0245C32.5896 29.0245 33.5568 29.3098 34.4031 29.8912V25.7994ZM28.7758 34.0487C28.7758 35.5625 30.0727 36.824 31.5565 36.824C33.1062 36.824 34.4031 35.5625 34.4031 34.0487C34.4031 32.5349 33.1062 31.2404 31.5565 31.2404C30.0727 31.2404 28.7758 32.5349 28.7758 34.0487Z" fill="#F5F5F5"/>
<path id="path2421" fill-rule="evenodd" clip-rule="evenodd" d="M42.6683 39.1165C39.8986 39.1165 37.6016 36.8238 37.6016 34.0485C37.6016 31.2402 39.8986 29.0243 42.6683 29.0243C43.7344 29.0243 44.7345 29.3095 45.5479 29.8909V29.1121H47.9658V38.8861H45.5479V38.2389C44.7345 38.7874 43.7674 39.1165 42.6683 39.1165ZM39.9536 34.0485C39.9536 35.5623 41.2505 36.8238 42.7672 36.8238C44.2839 36.8238 45.5479 35.5623 45.5479 34.0485C45.5479 32.5346 44.2839 31.2402 42.7672 31.2402C41.2505 31.2402 39.9536 32.5346 39.9536 34.0485Z" fill="#F5F5F5"/>
<path id="path2423" fill-rule="evenodd" clip-rule="evenodd" d="M2.54097 34.0485C2.54097 35.5623 3.83788 36.8238 5.3546 36.8238C6.90429 36.8238 8.2012 35.5623 8.2012 34.0485C8.2012 32.5346 6.90429 31.2402 5.3546 31.2402C3.83788 31.2402 2.54097 32.5346 2.54097 34.0485ZM5.28865 39.1165C2.508 39.1165 0.210938 36.8238 0.210938 34.0485C0.210938 31.2402 2.508 29.0243 5.28865 29.0243C6.35476 29.0243 7.35491 29.3095 8.2012 29.8909V29.1121H10.5862V38.8861H8.2012V38.2389C7.38788 38.7874 6.38773 39.1165 5.28865 39.1165Z" fill="#F5F5F5"/>
</g>
</g>
</g>
</svg>
