<svg width="165" height="101" viewBox="0 0 165 101" fill="none" xmlns="http://www.w3.org/2000/svg">
<g id="Subtract">
<mask id="path-1-inside-1_1_278" fill="white">
<path fill-rule="evenodd" clip-rule="evenodd" d="M163.564 11.9917C163.933 11.4571 164.131 10.823 164.131 10.1735V4.07124C164.131 2.30331 162.698 0.870117 160.93 0.870117H133.112C132.06 0.870117 131.075 1.3871 130.477 2.253L66.2621 95.3002C64.7966 97.4236 66.3167 100.32 68.8967 100.32H100.926C101.978 100.32 102.963 99.8025 103.561 98.9366L163.564 11.9917ZM114.701 95.3002C113.236 97.4236 114.756 100.32 117.336 100.32H160.93C162.698 100.32 164.131 98.8863 164.131 97.1184V33.9512C164.131 30.8105 160.079 29.5481 158.295 32.133L114.701 95.3002ZM82.0378 2.253C82.6354 1.3871 83.6203 0.870117 84.6724 0.870117H116.702C119.282 0.870117 120.802 3.76599 119.336 5.88948L55.1215 98.9366C54.5239 99.8025 53.539 100.32 52.4869 100.32H20.4575C17.8774 100.32 16.3574 97.4236 17.8229 95.3002L82.0378 2.253ZM70.8972 5.88948C72.3627 3.766 70.8427 0.870117 68.2626 0.870117H36.2332C35.1811 0.870117 34.1962 1.3871 33.5986 2.253L0.639627 50.0104C0.270702 50.545 0.0731201 51.1792 0.0731201 51.8287V97.1184C0.0731201 98.8863 1.50631 100.32 3.27425 100.32H4.04768C5.09978 100.32 6.08471 99.8025 6.6823 98.9366L70.8972 5.88948ZM0.0731201 4.07124C0.0731201 2.30331 1.50631 0.870117 3.27424 0.870117H25.4975C25.6771 0.870117 25.7829 1.07172 25.6809 1.21956L25.554 1.40342C25.554 1.40346 25.5539 1.40347 25.5539 1.40344C25.5538 1.40341 25.5538 1.40343 25.5537 1.40347L5.90886 29.8688C4.12494 32.4537 0.0731201 31.1913 0.0731201 28.0505V4.07124Z"/>
</mask>
<path d="M5.90886 29.8688L5.25021 29.4142L5.90886 29.8688ZM25.5537 1.40347L24.8951 0.948909L25.5537 1.40347ZM25.554 1.40342L24.8953 0.948859L25.554 1.40342ZM25.6809 1.21956L26.3395 1.67412L25.6809 1.21956ZM6.6823 98.9366L6.02365 98.4821L6.6823 98.9366ZM0.639627 50.0104L-0.0190278 49.5559L0.639627 50.0104ZM70.8972 5.88948L71.5559 6.34404L70.8972 5.88948ZM17.8229 95.3002L17.1643 94.8456L17.8229 95.3002ZM55.1215 98.9366L54.4629 98.4821L55.1215 98.9366ZM82.0378 2.253L82.6965 2.70756L82.0378 2.253ZM119.336 5.88948L119.995 6.34404L119.336 5.88948ZM158.295 32.133L158.954 32.5876L158.295 32.133ZM114.701 95.3002L114.043 94.8456L114.701 95.3002ZM66.2621 95.3002L65.6035 94.8456L66.2621 95.3002ZM130.477 2.253L131.136 2.70756L130.477 2.253ZM163.564 11.9917L164.223 12.4462L163.564 11.9917ZM164.931 10.1735V4.07124H163.331V10.1735H164.931ZM160.93 0.069836H133.112V1.6704H160.93V0.069836ZM129.818 1.79845L65.6035 94.8456L66.9208 95.7547L131.136 2.70756L129.818 1.79845ZM68.8967 101.12H100.926V99.5192H68.8967V101.12ZM104.219 99.3912L164.223 12.4462L162.906 11.5371L102.902 98.4821L104.219 99.3912ZM117.336 101.12H160.93V99.5192H117.336V101.12ZM164.931 97.1184V33.9512H163.331V97.1184H164.931ZM157.636 31.6785L114.043 94.8456L115.36 95.7547L158.954 32.5876L157.636 31.6785ZM116.702 0.069836H84.6724V1.6704H116.702V0.069836ZM55.7802 99.3912L119.995 6.34404L118.678 5.43492L54.4629 98.4821L55.7802 99.3912ZM20.4575 101.12H52.4869V99.5192H20.4575V101.12ZM81.3792 1.79845L17.1643 94.8456L18.4816 95.7547L82.6965 2.70756L81.3792 1.79845ZM36.2332 1.6704H68.2626V0.069836H36.2332V1.6704ZM1.29828 50.465L34.2573 2.70756L32.94 1.79844L-0.0190278 49.5559L1.29828 50.465ZM0.873401 97.1184V51.8287H-0.727161V97.1184H0.873401ZM4.04768 99.5192H3.27425V101.12H4.04768V99.5192ZM70.2386 5.43492L6.02365 98.4821L7.34096 99.3912L71.5559 6.34404L70.2386 5.43492ZM25.4975 0.069836H3.27424V1.6704H25.4975V0.069836ZM26.2126 1.85798L26.3395 1.67412L25.0222 0.764996L24.8953 0.948859L26.2126 1.85798ZM6.56752 30.3233L26.2124 1.85803L24.8951 0.948909L5.25021 29.4142L6.56752 30.3233ZM-0.727161 4.07124V28.0505H0.873401V4.07124H-0.727161ZM5.25021 29.4142C3.91227 31.3529 0.873401 30.4061 0.873401 28.0505H-0.727161C-0.727161 31.9764 4.33762 33.5545 6.56752 30.3233L5.25021 29.4142ZM26.0103 0.746091C25.6371 0.486927 25.1401 0.593875 24.8951 0.948909L26.2124 1.85803C25.9674 2.21298 25.4706 2.3199 25.0974 2.0608L26.0103 0.746091ZM24.8953 0.948859C25.1469 0.584403 25.6466 0.493527 26.0103 0.746091L25.0974 2.0608C25.4612 2.31342 25.9611 2.22252 26.2126 1.85798L24.8953 0.948859ZM3.27424 0.069836C1.06432 0.069836 -0.727161 1.86133 -0.727161 4.07124H0.873401C0.873401 2.74529 1.94829 1.6704 3.27424 1.6704V0.069836ZM25.4975 1.6704C25.0321 1.6704 24.7579 1.14803 25.0222 0.764996L26.3395 1.67412C26.8079 0.995413 26.3221 0.069836 25.4975 0.069836V1.6704ZM4.04768 101.12C5.36281 101.12 6.59397 100.474 7.34096 99.3912L6.02365 98.4821C5.57546 99.1315 4.83676 99.5192 4.04768 99.5192V101.12ZM-0.727161 97.1184C-0.727161 99.3283 1.06433 101.12 3.27425 101.12V99.5192C1.9483 99.5192 0.873401 98.4443 0.873401 97.1184H-0.727161ZM-0.0190278 49.5559C-0.480184 50.2241 -0.727161 51.0168 -0.727161 51.8287H0.873401C0.873401 51.3415 1.02159 50.8659 1.29828 50.465L-0.0190278 49.5559ZM68.2626 1.6704C70.1977 1.6704 71.3377 3.84231 70.2386 5.43492L71.5559 6.34404C73.3877 3.68969 71.4877 0.069836 68.2626 0.069836V1.6704ZM36.2332 0.069836C34.9181 0.069836 33.687 0.716059 32.94 1.79844L34.2573 2.70756C34.7055 2.05813 35.4442 1.6704 36.2332 1.6704V0.069836ZM20.4575 99.5192C18.5225 99.5192 17.3825 97.3473 18.4816 95.7547L17.1643 94.8456C15.3324 97.4999 17.2324 101.12 20.4575 101.12V99.5192ZM54.4629 98.4821C54.0147 99.1315 53.276 99.5192 52.4869 99.5192V101.12C53.802 101.12 55.0332 100.474 55.7802 99.3912L54.4629 98.4821ZM84.6724 0.069836C83.3573 0.069836 82.1262 0.716062 81.3792 1.79845L82.6965 2.70756C83.1447 2.05813 83.8834 1.6704 84.6724 1.6704V0.069836ZM116.702 1.6704C118.637 1.6704 119.777 3.84231 118.678 5.43492L119.995 6.34404C121.827 3.68968 119.927 0.069836 116.702 0.069836V1.6704ZM164.931 33.9512C164.931 30.0253 159.866 28.4473 157.636 31.6785L158.954 32.5876C160.292 30.6489 163.331 31.5957 163.331 33.9512H164.931ZM160.93 101.12C163.14 101.12 164.931 99.3283 164.931 97.1184H163.331C163.331 98.4443 162.256 99.5192 160.93 99.5192V101.12ZM117.336 99.5192C115.401 99.5192 114.261 97.3473 115.36 95.7547L114.043 94.8456C112.211 97.4999 114.111 101.12 117.336 101.12V99.5192ZM100.926 101.12C102.241 101.12 103.472 100.474 104.219 99.3912L102.902 98.4821C102.454 99.1315 101.715 99.5192 100.926 99.5192V101.12ZM65.6035 94.8456C63.7716 97.4999 65.6716 101.12 68.8967 101.12V99.5192C66.9617 99.5192 65.8217 97.3473 66.9208 95.7547L65.6035 94.8456ZM133.112 0.069836C131.797 0.069836 130.565 0.71606 129.818 1.79845L131.136 2.70756C131.584 2.05813 132.323 1.6704 133.112 1.6704V0.069836ZM164.931 4.07124C164.931 1.86132 163.14 0.069836 160.93 0.069836V1.6704C162.256 1.6704 163.331 2.74529 163.331 4.07124H164.931ZM163.331 10.1735C163.331 10.6606 163.182 11.1362 162.906 11.5371L164.223 12.4462C164.684 11.778 164.931 10.9854 164.931 10.1735H163.331Z" fill="#B6FF1C" mask="url(#path-1-inside-1_1_278)"/>
</g>
</svg>
